<?xml version="1.0" encoding="UTF-8"?><svg id="_イヤー_1" xmlns="http://www.w3.org/2000/svg" viewBox="0 0 70 113"><path d="M57.78,41c-2.72,10.52-11.88,15-22.78,15s-20.06-4.48-22.78-15c-7.01,1.81-12.22,5.66-12.22,16.33,0,9.28,10.48,44.56,13.2,53.56,.38,1.26,1.43,2.1,2.61,2.1H54.2c1.18,0,2.22-.84,2.61-2.09,2.73-8.91,13.19-43.69,13.19-53.58,0-11.37-5.21-14.52-12.22-16.33Z"/><path d="M35,7c10.48,0,19,8.52,19,19s-8.52,19-19,19-19-8.52-19-19S24.52,7,35,7m0-7C20.64,0,9,11.64,9,26s11.64,26,26,26,26-11.64,26-26S49.36,0,35,0h0Z"/></svg>