<?xml version="1.0" encoding="UTF-8"?><svg id="_イヤー_1" xmlns="http://www.w3.org/2000/svg" viewBox="0 0 92.25 124.86"><path d="M46.16,43.95c1.3,3.11,2.81,5.82,4.6,8.25,3.32,4.49,7.48,7.74,12.37,10.23-4.89,2.49-9.05,5.74-12.37,10.23-1.76,2.38-3.29,4.92-4.67,8.25-1.3-3.11-2.81-5.82-4.6-8.25-3.32-4.49-7.48-7.74-12.37-10.23,4.89-2.49,9.05-5.74,12.37-10.23,1.76-2.38,3.29-4.92,4.67-8.25m-.04-43.95C41.09,50.09,37.01,55.61,0,62.43c37.01,6.81,41.09,12.34,46.12,62.43,5.03-50.09,9.11-55.61,46.12-62.43C55.24,55.61,51.16,50.09,46.12,0h0Z"/></svg>