<?xml version="1.0" encoding="UTF-8"?><svg id="_イヤー_1" xmlns="http://www.w3.org/2000/svg" viewBox="0 0 60 104"><path d="M30.57,8l21.43,21.9V96H8V29.9L29.43,8h1.15M31.87,0h-3.74c-1.29,0-2.49,.43-3.19,1.14L1.03,25.59c-.67,.69-1.03,1.48-1.03,2.3V101.45c0,1.41,1.74,2.55,3.88,2.55H56.12c2.14,0,3.88-1.14,3.88-2.55V27.89c0-.82-.36-1.61-1.03-2.3L35.06,1.14c-.7-.71-1.9-1.14-3.19-1.14h0Z"/><path d="M30,32c2.21,0,4,1.79,4,4s-1.79,4-4,4-4-1.79-4-4,1.79-4,4-4m0-7c-6.08,0-11,4.92-11,11s4.92,11,11,11,11-4.92,11-11-4.92-11-11-11h0Z"/></svg>