<?xml version="1.0" encoding="UTF-8"?><svg id="trash" xmlns="http://www.w3.org/2000/svg" viewBox="0 0 75.8 90.62"><defs><style>.cls-1{fill:#231815;}</style></defs><path class="cls-1" d="M1.48,7.96H74.32c.82,0,1.48,.66,1.48,1.48v3.7c0,2.74-2.23,4.97-4.97,4.97H4.97c-2.74,0-4.97-2.23-4.97-4.97v-3.7c0-.82,.66-1.48,1.48-1.48Z"/><path class="cls-1" d="M30.37,0h14.76C46.51,0,47.63,1.12,47.63,2.5h0c0,4.68-3.8,8.48-8.48,8.48h-2.8c-4.68,0-8.48-3.8-8.48-8.48h0C27.88,1.12,29,0,30.37,0Z"/><path class="cls-1" d="M3.27,21.79v53.88c0,8.25,6.41,14.94,14.33,14.94H58.21c7.91,0,14.33-6.69,14.33-14.94V21.79H3.27Zm20.84,55.77c0,2.04-1.77,3.7-3.96,3.7s-3.96-1.66-3.96-3.7V36.79c0-2.04,1.77-3.7,3.96-3.7s3.96,1.66,3.96,3.7v40.77Zm17.83-.32c0,2.04-1.77,3.7-3.96,3.7s-3.96-1.66-3.96-3.7V36.47c0-2.04,1.77-3.7,3.96-3.7s3.96,1.66,3.96,3.7v40.77Zm17.93,0c0,2.04-1.77,3.7-3.96,3.7s-3.96-1.66-3.96-3.7V36.47c0-2.04,1.77-3.7,3.96-3.7s3.96,1.66,3.96,3.7v40.77Z"/></svg>