<?xml version="1.0" encoding="UTF-8"?><svg id="_イヤー_1" xmlns="http://www.w3.org/2000/svg" viewBox="0 0 65.66 115.27"><defs><style>.cls-1{fill:#231815;}</style></defs><path class="cls-1" d="M15.9,113.68c-.26-.93-.51-1.94-.55-2.98-.1-2.48-.15-4.95-.26-7.43-.04-.91,.28-1.18,1.18-1.08,1.62,.18,1.63,.14,1.62,1.8-.03,3.19,.64,6.27,1.34,9.35,.14,.64,.69,1.43-.37,1.83-.86,.32-2.35-.23-2.75-.98-.07-.14-.12-.3-.21-.52Z"/><path class="cls-1" d="M27.12,54.39c-.05,.2-.11,.47-.2,.72-.94,2.59-1.89,5.18-2.85,7.77-.16,.43-.2,1.07-.82,1.03-.85-.05-1.7-.22-2.54-.4-.2-.05-.03-.34,.02-.53,.73-3.2,1.63-6.35,2.87-9.39,.09-.21,.18-.47,.35-.58,.29-.19,3.02,.98,3.17,1.38Z"/><path class="cls-1" d="M27.86,42.65c.2,.11,.37,.2,.53,.29q2.61,1.43,1.55,4.23c-.72,1.91-1.44,3.82-2.17,5.73-.21,.55-.46,1-1.07,.32-.15-.17-.42-.23-.64-.33-2.04-.88-2.03-.87-1.27-3,.79-2.23,1.74-4.4,2.74-6.54,.1-.22,.2-.43,.33-.71Z"/><path class="cls-1" d="M17.88,76.2c.91-3.62,1.56-7.17,2.27-10.7,.09-.43-.04-1.23,.53-1.18,.89,.08,1.83,.29,2.58,.86,.08,.06-.05,.45-.12,.68-.94,2.9-1.73,5.85-2.23,8.86-.21,1.24-.73,1.67-1.9,1.5-.34-.05-.69-.02-1.12-.02Z"/><path class="cls-1" d="M18.72,89.68c-.03,.3-.05,.54-.08,.78-.42,3.26-.65,6.54-.73,9.82-.04,1.68-1.19,.92-1.92,1.08-1.01,.23-.86-.56-.82-1.11,.24-3.39,.53-6.79,.76-10.18,.04-.63,.31-.74,.84-.65,.64,.12,1.34-.09,1.95,.27Z"/><path class="cls-1" d="M18.69,88.78c-.9-.09-1.59-.6-2.45-.65-.22-.01-.08-.81-.03-1.23,.41-3.06,.76-6.12,1.31-9.16,.3-1.63,1.34-.77,2.07-.78,.93-.02,.63,.69,.52,1.22-.64,3.19-.86,6.43-1.17,9.66-.03,.33,.03,.71-.26,.95Z"/><path class="cls-1" d="M39.28,22.04l.26-.09c.45,.6,.7,1.28,.8,2.02-.77,2.02-2.1,3.75-3.03,5.7-.14,.29-.36,.55-.44,.85-.34,1.3-.97,1.23-2.04,.7-.88-.44-.87-.79-.45-1.49,.53-.88,1.18-1.69,1.46-2.71,.69-1.03,1.39-2.06,2.08-3.08,.45-.63,.9-1.26,1.36-1.89Z"/><path class="cls-1" d="M50.5,7.64c.25,.49,.07,1,.06,1.5-1.44,1.74-2.99,3.39-4.2,5.35-1.03-1.4-1.04-1.41,.01-2.63,1.05-1.2,2.11-2.38,3.19-3.56,.26-.29,.48-.66,.95-.66Z"/><path class="cls-1" d="M40.34,23.97l-.8-2.02c.82,.39,.58,1.34,1.01,1.93l-.11,.04-.11,.04Z"/><path class="cls-1" d="M36.7,15.19c-.16,0-.32,.02-.48,.03-3.34,.34-5.89,2.13-8.21,4.38-.52,.51-.3,.84,.25,1.08,1.43,.61,2.88,.6,4.34,.1,1.23-.42,2.21-1.28,3.35-1.87,.21-.27,.6-.22,.85-.44,.19-.16,.37-.33,.58-.48,0,0,.04-.03,.1-.08,.08-.07,.09-.07,.03,0-.17,.14-.35,.27-.52,.43-.19,.17-.41,.31-.44,.6-2.1,2.37-3.37,5.13-3.8,8.27-.07,.49-.41,1.12,.09,1.46,.56,.37,.89-.33,1.3-.59,.57-.36,1.02-.9,1.7-1.09,1.18-.7,1.75-1.81,2.08-3.08-.22-.64,.16-1.17,.36-1.72,.53-1.4,.87-2.84,1-4.32,.18-2.09-.49-2.78-2.58-2.69Zm-1.71,11.07c-.05-.51-.02-.99,.51-1.42,.1,.67-.1,1.08-.51,1.42Zm.68-1.93c.02-.85,.33-1.59,.91-2.22-.1,.82-.37,1.57-.91,2.22Zm1.34-2.95c-.13-.74,.28-1.25,.46-1.66-.12,.43-.29,1.05-.46,1.66Zm-5.46-2.45l-.08-.21,5.74-2.24,.09,.21-5.75,2.25Z"/><path class="cls-1" d="M37.12,18.45l-.37-.11c.12-.28,.38-.38,.63-.49,.18-.19,.27-.11,.32,.11l-.57,.49Z"/><path class="cls-1" d="M37.7,17.96l-.32-.11c.16-.29,.4-.46,.76-.47,.05,.35-.29,.4-.44,.58Z"/><path class="cls-1" d="M34.39,31.67c-.67-.34-.98-.24-1.29,.41-.54,1.15-1.13,2.28-1.78,3.57-.81-1.18-1.5-2.21-2.22-3.22-.37-.52-.87-.84-1.53-.81-.47,.02-.73,.14-.51,.75,.32,.86,.63,1.76,.72,2.66,.23,2.12,2.57,4.04,.63,6.39-.25,.31-.16,.71,.3,.85,.91,.29,1.95,1.66,2.49,1.11,.86-.88,.92-.09,1.25,.21,.3,.26,.52,.6,.8,.89,.23,.24,.42,.71,.84,.49,.42-.22,.18-.64,.08-.97-.34-1.15-.69-2.3-1.06-3.44-.18-.55-.3-1.08-.04-1.63,.76-1.59,1.27-3.29,2.11-4.85,.85-1.59,.8-1.57-.81-2.39Zm-3.36,7.51h0c-.07-.02-.1-.06-.1-.1-.63-.6-.71-1.48-1.06-2.23-.21-.52-.43-1.05-.64-1.57h0c-.11-.32-.37-.61-.25-1.01,.32,.25,.35,.62,.47,.94,.2,.53,.4,1.05,.6,1.58l.93,2.19c.65,.6,.69,1.48,1.2,2.31-1.24-.39-.64-1.53-1.15-2.11Z"/><path class="cls-1" d="M16.02,59.21c-.23-.02-.48,.04-.71,.1-2.07,.54-3.78,1.67-5.25,3.2-1.96,2.03-3.24,4.56-4.98,6.75-.44,.56,.04,.66,.49,.65,1.2-.02,2.4-.08,3.3-.51,2.18-.82,3.56-2.26,4.73-3.9,1.12-1.56,2.17-3.17,3.24-4.76,.24-.35,.79-.68,.59-1.1-.25-.51-.91-.39-1.41-.43Zm-6.13,7.5c.02-.42,.14-.77,.71-.92-.09,.51-.33,.77-.71,.92Zm.99-1.24c-.12-.4,.05-.59,.27-.74,.05-.03,.26,.08,.26,.11-.03,.28-.21,.45-.53,.63Zm1.66-2.21s0,.01,0,.02h-.03c-.07,.37-.2,.67-.67,.67,.05-.43,.33-.59,.67-.67v-.02h.02c-.12-.54,.17-.82,.61-1,0,0,0-.02,0-.03h.02s-.02,.02-.02,.03c.05,.49-.21,.78-.61,.99Zm1.35-1.82s0,.01,0,.02h0s-.02,0-.03,0c-.05,.42-.31,.64-.69,.76,0,0,0,.01,0,.02h-.02s.02-.02,.03-.02c.01-.45,.29-.66,.69-.76,0,0,0-.01,0-.02h.02c-.13-.4,.04-.63,.44-.8,.13,.47-.15,.64-.44,.79Z"/><path class="cls-1" d="M8.07,58.21c-2.95,1.4-5.09,3.98-7.78,5.78-.46,.31-.38,.7,.18,.85,2.71,.73,5.23,1.02,7.57-1.27,2.2-2.16,4.45-4.4,8-5.21-2.9-1.82-5.5-1.32-7.97-.15Zm-2.88,4.06c2.22-1.96,4.68-3.46,7.71-3.82-2.78,.86-5.2,2.42-7.71,3.82Z"/><path class="cls-1" d="M22.86,30.93c-.23-.01-.48,.05-.71,.1-1.63,.35-3.12,.97-4.49,1.94-1.98,1.4-3.55,3.23-5.21,4.96-.21,.22-.58,.42-.38,.79,.18,.33,.57,.2,.88,.19,1.55-.04,3-.46,4.43-1.01,.69-.32,1.41-.59,2.07-.96,1.6-.92,3.07-2.04,4.5-3.2,.58-.47,1.56-1.05,1.29-1.7-.34-.82-1.43-1.06-2.39-1.1Zm-5.77,4.55c.38-.24,.75-.49,1.27-.83-.25,.75-.8,.74-1.27,.83Zm1.89-.94c.04-.53,.47-.51,.95-.82-.25,.66-.54,.79-.95,.82Zm1.96-1.05c.54-.72,1.29-.91,2.13-.83l-2.13,.83Z"/><path class="cls-1" d="M45.2,13.8c-.54-.41-.74,.49-1,.85-.78,1.05-1.48,2.15-2.22,3.25-.52-.37-.49-.92-.77-1.29-.21-.27-.31-.73-.76-.67-.47,.06-.45,.51-.48,.86-.1,1.11-.29,2.22-.18,3.35,.07,.69-.04,1.35-.5,1.9,.06,.1,.12,.2,.2,.28,.47,.45,.42,1.25,1.08,1.56,.74,1.64,1.48,3.28,2.23,4.92,.13,.28,.26,.63,.65,.61,.29-.01,.36-.29,.39-.53,.36-2.81,1-5.64-.46-8.34-.31-.58-.21-1.02,.13-1.54,.71-1.07,1.35-2.18,2.04-3.25,.5-.77,.14-1.58-.34-1.94Zm-1.99,11.46h0c.14,.42,.27,.83,.41,1.25-.79-.54-.69-1.42-1.02-2.12-.71-1.65-1.01-3.43-1.64-5.12,1.19,1.83,1.72,3.91,2.25,5.99Z"/><path class="cls-1" d="M30.24,53.54c-.19-.26-.14-.85-.64-.71-.4,.11-.32,.62-.32,.95,0,3.05,.24,6.07,1.49,9.24,.34,1.68,1.75,2.93,3.18,4.17,.45,.39,1,.96,1.56,.67,.65-.34,.21-1.09,.12-1.64-.79-4.65-2.62-8.87-5.39-12.68Zm3.29,9.3c.08,.22,.37,.5-.07,.69-.02,.01-.07-.01-.1-.03-.03-.02-.05-.06-.08-.09-.57-1.48-1.15-2.97-1.72-4.45-.48-.88-.62-1.84-.75-2.78,.26-.13,.4-.05,.43,.12,.44,2.29,1.51,4.36,2.28,6.54Z"/><g><path class="cls-1" d="M25.6,79.64c-.03,.06-.02,.12,0,.17v-.17Z"/><path class="cls-1" d="M28.48,80.37c-.97-1.59-2.34-2.72-4.11-3.31-.74-.25-1.24-.05-.97,.86,.49,1.69,.81,3.43,1.59,5.33,1.1,2.83,1.94,3.65,5.22,4.96,.23,.09,.46,.17,.67,0,.26-.21,.21-.47,.15-.76-.56-2.46-1.21-4.9-2.55-7.08Zm-2.9-.21c-.44-.38-.8-.81-.99-1.48,.64,.11,.78,.59,1.02,.95,.09,.12,.17,.25,.27,.37,.14,.18,.4,.45,.21,.57-.35,.22-.36-.24-.51-.42Zm.74,1.12l.29-.17c.37,.64,.74,1.27,1.11,1.91-.78-.4-1.03-1.1-1.4-1.74Z"/></g><path class="cls-1" d="M26.8,34.84c-.6-.57-1.6-.08-2.42,.06-.08,.01-.15,.06-.46,.18-.06,.03-.35,.17-.6,.37-3.06,2.44-4.05,6.04-5.25,9.5-.19,.56,.25,.55,.65,.34,3.6-1.84,6.6-4.23,7.68-8.37,.18-.7,.99-1.52,.39-2.08Zm-4.03,5.04l-.65,1h0l-.49,.72h0c-.1,.42-.36,.73-.82,1.18-.01-.77,.32-1.11,.65-1.45h0c.11-.19,.22-.38,.34-.57l.67-1.02c.15-.4,.33-.77,.82-1.05,.18,.6-.26,.86-.52,1.19Zm.71-1.33c.08-.63,.28-.96,.9-1.24-.16,.61-.35,.95-.9,1.24Zm.96-1.42c.13-.61,.33-.84,.77-1.06,0,.55-.2,.79-.77,1.06Z"/><path class="cls-1" d="M39.52,58.89c-.79-1.98-1.8-3.76-3.35-5.13-1.31-1.17-2.68-2.19-4.71-1.91-1.12,.16-.92,.5-.6,1.17,1.02,2.11,2.39,3.96,3.93,5.71,.86,.97,1.88,1.61,3.16,1.82,.66,.1,1.49,.59,1.95,.13,.54-.54-.34-1.19-.38-1.79Zm-3.2-1.32c-1.33-1.41-2.67-2.82-4-4.23l.31-.3c1.43,1.33,2.86,2.66,3.98,4.28l-.3,.25Z"/><path class="cls-1" d="M18.38,61.29c-.38-.1-.54,.25-.71,.53-.35,.59-.7,1.17-1.04,1.76-1.93,3.43-2.26,7.04-1.2,10.95,.08,.15,.2,.5,.56,.53,.39,.03,.52-.32,.66-.61,.92-1.97,1.72-3.97,2.11-6.12,.38-2.11,.39-4.22-.02-6.33-.05-.26-.05-.63-.36-.71Zm-1.09,6.08c.11,.44,.13,.87-.03,1.31h0c.02,.34,.04,.68,.07,1.15-.47-.35-.33-.73-.31-1.07h0v-1.29h0c-.07-.34-.13-.68,.14-1.04,.37,.3,.22,.63,.14,.95Z"/><path class="cls-1" d="M49.47,33.01c-1.39-1.48-3.13-2.17-5.2-1.9-.93,.12-1.13,.49-.53,1.24,1.23,1.53,2.43,3.07,3.67,4.58,1.05,1.28,2.47,2.02,4,2.54,1.01,.34,1.44-.09,1.21-1.14-.07-.31-.2-.61-.26-.78-.79-1.74-1.69-3.26-2.9-4.55Zm-4.63-.5c1.01,.2,2.91,2.04,3.32,3.39-1.06-1.08-2.11-2.15-3.32-3.39Z"/><path class="cls-1" d="M42.5,32.34c-.15-.17-.29-.44-.57-.35-.27,.09-.25,.38-.29,.61-.27,1.66-.48,3.33-.41,5.02,.11,2.59,1.11,4.81,2.8,6.74,.25,.29,.5,.77,.95,.59,.54-.22,.26-.76,.25-1.17-.04-.96-.1-1.92-.19-2.88-.17-1.95-.09-3.94-.7-5.33-.61-1.47-1.12-2.42-1.84-3.24Zm1.02,8.95c.02,.1,0,.22,.01,.33l-.17,.02c-.04-.18-.17-.44-.1-.52,.29-.32,.22,.04,.25,.17Zm-.32-2.34c0,.11-.05,.22-.09,.41-.28-.29-.4-.6-.23-.72,.37-.26,.31,.11,.32,.32Zm-.39-2.76h0c.1,.3,.25,.6,.02,.93-.36-.2-.09-.58-.24-.83l-.11-1.13c.33,.3,.51,.63,.33,1.04Z"/><path class="cls-1" d="M65.22,6.78c-.33-.59-.67-1.27-1.09-1.9-1.27-1.91-2.59-3.78-4.84-4.69-.79-.32-1.47-.23-2.11,.34-.68,.6-.24,1.21,.03,1.74,1.48,2.93,3.58,5.1,6.99,5.66,.45,.07,.94,.56,1.33,.14,.39-.41-.23-.77-.31-1.28Zm-5.16-3.19c-.56-.81-1.46-1.36-1.78-2.37,.9,.42,1.41,1.21,1.9,2.02,1.02,.46,1.43,1.43,1.99,2.29-.95-.4-1.4-1.31-2.11-1.95Z"/><path class="cls-1" d="M54.62,3.24c-.21-.33,.17-.88-.38-1.03-.46-.13-.86,.07-1.18,.41-.19,.2-.39,.4-.59,.6-1.2,1.23-1.43,2.9-1.96,4.42-.17,.51-.34,1.02,.06,1.5,.29,.58,.19,1.17,.09,1.77-.14,.81,.03,1.6,.24,2.37,.11,.4,.39,.58,.64,.12,1.32-2.37,2.96-4.64,2.97-7.51,0-1.01,.4-1.66,1.21-2.16,.4-.08,.35-.36,.29-.64-.55-.82-.9,.42-1.38,.15Zm-1.06,1.61c-.32,.73-.64,1.45-.95,2.18-.06,.28,0,.8-.42,.66-.35-.12-.08-.55,.05-.83,.11-.81,.41-1.53,.94-2.16h0c.15-.44,.39-.8,.9-1.06,.19,.63-.29,.87-.52,1.22Z"/><path class="cls-1" d="M57.14,3.74c-.27-.4-.54-.83-1.14-.65l-.29,.64c.33,1.34,.03,2.69,.16,4.04,.27,2.7,1.33,4.91,3.63,6.44,.3,.2,.61,.47,.98,.23,.32-.21,.21-.57,.18-.88-.34-3.57-1.49-6.86-3.52-9.82Zm.21,1.66c.16,.45,.34,.89,.48,1.34,.27,.88,.52,1.77,.65,2.69-.97-1.48-1.4-3.14-1.69-4.86h0c.57,.02,.39,.54,.56,.83Z"/><path class="cls-1" d="M28.1,56.12c-.38-.01-.43,.31-.48,.58-.21,1.14-.29,2.34-.82,3.38-1.14,2.24-1.26,4.45-.03,6.68,.2,.52,.38,1.06,.62,1.56,.16,.33,.15,.89,.71,.82,.47-.06,.55-.53,.71-.89,.08-.18,.11-.38,.18-.57,1.34-3.74-.16-7.36-.5-11.03-.02-.21-.08-.52-.4-.53Zm.08,6.97c-.02,.41,.24,.83-.06,1.34-.44-.5-.3-1.03-.28-1.53h0c-.1-.32-.16-.63,.25-.79v-.02h.02s0,.01-.02,.02c.03,.33,.06,.65,.1,.98Zm-.02-2.81l-.02,.74h0c0,.36,.13,.72-.06,1.07h0c-.5-.32-.4-.76-.25-1.22h0l.07-.75c-.02-.31,0-.6,.29-.88,.27,.37,.09,.7-.03,1.03Z"/><path class="cls-1" d="M38.01,34.8c-2.53,2.67-2.34,5.87-1.81,9.13,.03,.18,.15,.41,.29,.49,.21,.11,.35-.11,.46-.27,1.97-2.67,3.42-5.51,3.04-8.97-.05-.47-.17-.95,.13-1.46-1.06-.14-1.56,.49-2.11,1.08Zm.27,2.64c-.08,.39-.15,.77-.23,1.16h.05c.05,.29,.08,.59-.13,.87-.34-.22-.34-.49-.18-.78-.01,0-.02,0-.04,0-.09-.49,.02-.95,.22-1.4,.1-.34,.03-.79,.65-.98-.13,.44-.24,.79-.34,1.14Z"/><path class="cls-1" d="M37.06,79.71c-1.43-1.29-2.96-2.43-4.59-3.47-1.71-1.1-3.43-1.18-5.3-.33-.59,.36-.14,.64,.22,.96,2.66,2.35,5.6,3.98,9.31,3.64,.26-.02,.6,.14,.71-.23,.09-.28-.18-.41-.36-.56Zm-5.89-1.99s-.05,.02-.09,.02c-.78-.21-1.4-.69-2.02-1.23,.8,.03,1.44,.46,2.1,.87l.03-.06c.66,.15,1.17,.55,1.67,1-.64-.03-1.19-.25-1.69-.59Z"/><path class="cls-1" d="M23.13,79.1c-.21-.08-.44,.01-.52,.2-.36,.83-1.24,1.28-1.59,2.09-1.15,2.67-.88,5.48-.83,8.05,.16,.44,.18,.72,.45,.79,.36,.09,.48-.21,.61-.46,.43-.81,.88-1.62,1.27-2.45,1.11-2.4,1.31-4.92,.94-7.51-.04-.28-.02-.58-.34-.71Zm-1.47,5.93c-.26-.4-.24-.69,.06-1.04,.31,.39,.23,.68-.06,1.04Z"/></svg>