<?xml version="1.0" encoding="UTF-8"?><svg id="_イヤー_1" xmlns="http://www.w3.org/2000/svg" viewBox="0 0 110.92 120.53"><defs><style>.cls-1{fill:#fbfafb;}.cls-2{fill:#231815;}.cls-3{fill:#3e3a39;}.cls-4{fill:#788082;}.cls-5{fill:#837070;}</style></defs><path class="cls-2" d="M74.82,59.56c3.78,.01,7.47-.79,11.21-1.14,.29,0,.54,.11,.76,.3,2.6,4.84,4.49,9.91,5.01,15.44-.04,.41-.15,.79-.44,1.1-2.92,1.66-6.23,1.99-9.41,2.68-9.11,2-18.35,3.22-27.61,4.17-4.42,.45-8.86,.7-13.31,.93-4.99,.26-9.93,.09-14.88-.42-1.52-.16-3.03-.33-4.44-.97-.82-.74-.41-1.61-.26-2.45,.33-.87,.16-1.59-.63-2.15-.53-.37-.94-.93-1.55-1.14-2.42-.82-4.36-2.42-6.44-3.8-.94-1.36-2.27-2.54-2.19-4.41-.12-2.45-.13-4.86,.57-7.28,1.04-3.56,3.23-4.81,6.75-3.67,2.28,.74,4.37,1.84,6.37,3.12,1.67,.15,1.03-1.33,1.46-2.06,1.84,2.44,4.69,2.01,7.19,2.39,3.68,.56,7.41,.92,11.15,.8,3.54-.26,7.09-.08,10.64-.36,3.2-.25,6.4-.56,9.62-.57,2.71-.53,5.46-.35,8.19-.35,.75,0,1.51,.17,2.24-.15Z"/><path class="cls-2" d="M51.91,3.84c.78,1.42,2.4,2.46,1.89,4.47-.12,.47,.55,.46,.94,.51,3.33,.48,6.69,1.01,9.81,2.22,1.95,.76,4.18,1.26,5.68,2.99,.32,1.66,.14,1.89-1.5,1.83-2.08-1.12-4.34-1.81-6.45-2.92-1.28-.68-3.06-.77-4.56-.83-2.41-.1-4.77-.71-7.22-.54-1.65,.11-3.29,.12-4.95,.33-2.47,.32-4.91,.7-7.36,1.13-.46,.08-.96-.1-1.15,.46-.19,.56,.4,.6,.68,.86,1.62,1.49,3.05,3.93,1.14,5.73-.8,.75-1.84,1.29-2.12,2.48-1.84,1.17-3.83,1.88-6.01,2.03q-2.08,.19-2.09-1.57c.34-.93,1.15-1.12,1.97-1.13,2.26-.02,3.93-1.14,5.49-2.64,1.01-.96,.87-1.77,.03-2.68-.48-.52-1.17-.76-1.64-1.28-.91-.96-1.95-.36-2.75,.02-1.28,.61-2.59,1.02-3.91,1.48-3.06,1.06-5.7,2.88-7.96,5.22-.19,.96-1.84,.74-1.61,2.03,.04,.69-.44,1.14-.78,1.66-1.24,.45-.45,1.45-.6,2.2-.13,1.26-.3,2.51-.6,3.75-.11,.78-.46,1.33-1.35,1.24-.79-.08-.89-.66-.82-1.28,.12-.94-1.05,.2-.98-.63,.6-2.37,.73-4.8,1.95-7.08,1-1.87,2.01-3.59,3.45-5.18,1.21-1.34,2.6-2.08,4.1-2.96,1.73-1.02,3.54-1.77,5.33-2.62,2.02-.96,3.77-2.84,4.55-4.52,1.35-2.94,3.23-5.34,6.17-7.02C40.33,.65,41.93,.06,43.76,0c2.03-.06,3.87,.53,5.33,2.04,.27,.74,.82,1.56-.53,1.82-.79-.61-1.65-.31-2.5-.2-2.93-1.26-5.22,.1-7.36,1.86-1.31,1.07-2.68,2.1-3.58,3.59-.23,.39-.72,.85-.4,1.25,.42,.52,.95,0,1.41-.19,.31-.17,.64-.36,.98-.37,1.82-.05,3.56-.41,5.28-1.04,.75-.27,1.62-.1,2.44-.08,.73-.27,1.41,.94,2.16,.05,.14-.07,.29-.11,.45-.13,1-.1,1.92-.77,2.99-.3,.5,.22,.73-.11,.71-.62-.02-.46-.06-.91-.08-1.37,0-.57-.2-1.12-.16-1.68,.04-.61,.17-1.18,1.01-.8Z"/><path class="cls-3" d="M51.17,22.85h1.43c.36,.77,.91,1.28,1.75,1.58,3.77,1.35,5.71,4.28,7.04,7.9,.77,2.1,.86,4.02,.11,6.06-.81,.59,.17,4.57-.69,4.43-1.71,1.2-1.8,1.36-3.33,2.6-.42,.34-4.88-.25-5.41-.13-1.2,.25-.42,1.75-2.66,.47-.78-.45-1.03-.68-1.78-1.91-.56-.03-1.03-.28-1.29-.76-1.15-2.11-2.81-3.96-3.3-6.42-.78-.91-1.89-1.73-.94-3.16-.16-3.99,3.22-9.36,7.73-9.91,.55-.07,1-.3,1.33-.75Z"/><path class="cls-2" d="M3.76,86.81c.8-.25,1.06-.37,1.58-.64,1.89-.99,3.92-.91,5.89-.56,1.07,.19,2.13,.78,3.03,1.42,.98,.7,1.66,.64,2.36-.25,1.18,.56,.58,1.87,1.15,2.69,.34,1.48,2.14,1.83,2.53,3.27,.32,.74,.91,1.54-.02,2.19-.98,.68-1.61-.11-2.22-.75-.68-.72-1.45-1.36-2.12-2.09-1.37-1.51-3.02-2.55-4.96-3.21-2.49-.84-4.57,.23-5.74,2.53-1.02,2.01-.78,3.99-.49,5.95,.47,3.15,.52,6.46,2.48,9.23,.14,.2,.09,.45,.03,.68-.33,.49-.58,1.01-.79,1.55-.21,.52-.4,1.15-1.21,.94l-.29-.31c-.37-.9,.56-1.44,.52-2.19-.27,.17-.17,1-.89,.72-1.42-.49-1.62-2.04-1.9-3.03-.38-1.34-.82-2.7-1.16-4.07-.21-.84,.05-1.44,.62-2,.72-.98,.04-1.71-.49-2.42-.6-.82-.97-1.68-.86-2.71,.02-.17,.05-.34,.09-.51,.47-1.73,.17-3.68,1.56-5.13,.22-.23,.38-.45,.63-.66l.69-.65Z"/><path class="cls-2" d="M87.87,38.75c-.76-1.36-.65-3.01-1.6-4.36-.85-1.21-1.34-1.5-2.5-.39-1.26,1.2-2.83,2.02-4.59,2.25-1.34,.17-1.93-.36-1.2-1.72,2.86-1.6,4.78-4.15,6.04-7.01,1.41-3.21,1.4-5.33-2.25-6.96-3.17-.91-6.26-.45-9.35,.45-1.13,.33-2.41,.96-3.28-.55-.51-.75-.09-1.05,.52-1.49,.69-.49,1.9-.43,1.95-1.67-.28-.29-.69-.67-.04-.89,.6-.21,1.34-.66,1.87,.14,.25,.39,.22,.88,.26,1.32,.32-.24-.51-1.03,.45-1,.55,.32,1.09,.13,1.68,.08,3.21-.3,6.24-.41,9.25,1.62,2.09,1.41,3.29,2.97,3.36,5.22,.06,1.97-.51,3.98-1.34,5.8-.33,.72-.3,1.08,.09,1.69,.87,1.38,1.63,2.84,2.44,4.26-.09,1.06-.16,2.12-.38,3.16-.08,.37-.17,.84-.67,.88-.58,.05-.47-.54-.69-.83Z"/><path class="cls-2" d="M69.13,20.45c.89,.96,2.04,.55,2.9,.23,3.34-1.25,6.69-1.52,10.13-.58,.98,1.01,.9,2.38,.66,3.48-.84,3.93-2.29,7.61-5.59,10.23-.09,0-.19,0-.28,0-2.22-3.5-4.97-6.65-6.77-10.42-.45-.95-1-1.85-1.05-2.94Z"/><path class="cls-2" d="M93.5,56.35c-1.58-3.13-2.77-6.4-3.29-9.88,.39-.66,.93-.96,1.7-.76,.72,.05,1.01,.53,1.16,1.16,.54,1.68,1.11,3.35,1.61,5.05,1.04,3.5,1.93,7.07,3.15,10.48,.6,1.67,1.3,3.43,1.84,5.12,1.23,3.84,2.52,7.72,2.75,11.81,.02,.35,.1,.66,.13,.99,.13,1.38,.7,2.15,2.2,1.81,.66,.55,.89,1.2,.52,2.01-.17,.23-.41,.34-.68,.4q-2.47-.1-3.1,2.23c-.08,.15-.2,.27-.36,.35-.45,.07-.86-.06-1.23-.32-.61-.7-.37-1.55-.37-2.34,.04-3.48,.02-6.95-1.37-10.24-.11-.27-.07-.57,0-.86,.26-.52,.22-1.02-.13-1.48-1.76-2.35-2.18-5.25-3.18-7.9-.45-1.2-.25-2.61-.83-3.86-.28-.59,.29-.97,.83-1.19-.53,.14-1,.15-1.42-.32-.7-.8,.24-1.52,.06-2.29Z"/><path class="cls-2" d="M21.92,78.93l-.37,2.43c.3,1.04-.25,1.69-1.02,2.25-1.38-.07-1.79-1.15-2.25-2.18-2.6-1.25-4.59-3.21-5.93-5.68-.53-.98-1.39-1.6-1.98-2.52-1.47-2.3-2.17-4.88-3.05-7.35-.94-2.61-1.31-5.58-.64-8.28,.56-2.25,1.8-4.47,4.25-5.5,2.36-1.04,2.91-.72,3.15,1.8-.74,1.32-2.45,1-3.38,2-1.05,.19-1.09,.86-.79,1.69-.29,3.45,.2,6.81,1.02,10.14,.06,1.72,1.45,2.77,2.13,4.18,.83,.75,.92,2,2.12,2.6,1.14,.56,1.55,1.98,2.34,2.98,.66,.84,1.56,1.42,2.76,.98,.64-.24,1.27-.33,1.62,.46Z"/><path class="cls-2" d="M64.17,36.19c-.59,1.73,.1,3.62-.68,5.32-.58,1.26-1.16,2.52-2.09,3.57-1.1,2.59-5.18,4.17-8.1,3.15l-4.6-1c-.82-.21-1.45-.68-1.9-1.4-.23-.79,.52-1.05,.85-1.55,.14-.07,.3-.09,.46-.08,.56,.16,1,.81,1.69,.4,1.66,.1,3.29,.47,4.94,.66,.75,.08,1.33,.02,1.96-.35,2.11-1.26,3.95-2.68,4.09-5.43,.03-.51,.22-1.02,.59-1.43,.94-4.51-.91-8.18-3.66-11.47-1.03-1.23-2.65-1.82-4.22-2.3-.88-.27-1.54-.66-.89-1.72,3.17-.65,5.25,1.41,7.36,3.14,2.57,2.1,3.58,5.05,3.87,8.29,.07,.74,.22,1.48,.34,2.21Z"/><path class="cls-2" d="M41.42,118.75c-.69-.85-.35,.64-.8,.35-.84-.9-1.88-1.24-3.12-1.33-2.2-.16-4.37-.44-6.6-.38-1.84,.05-3.64-.97-5.57-1.15-1.83-.17-3.58-.92-5.5-.55-.66,.13-1.52-.15-1.88-.99,.21-.71,.74-1.1,1.38-1.38,1.43-.54,2.8,0,4.15,.3,4.43,.97,8.96,1.12,13.45,1.37,6.35,.35,12.66-.43,18.95-1.23,.88-.11,1.75-.21,2.62,.03,1.17,.6,.72,1.45,.26,2.2-.4,.65-.51,1.16,.21,1.62-.46,1.43-1.81,.9-2.6,.85-1.06-.06-2.15,.06-3.22-.12-2.16-.13-4.27,.4-6.43,.36-1.77-.03-3.54-.08-5.3,.05Z"/><path class="cls-2" d="M18.05,114.87c1.64,.77,3.43-.27,5.1,.46,1.9,.83,4.06,.41,6.03,1.24,.57,.24,1.74,.38,2.75,.31,2.4-.18,4.87,.48,7.31,.74,.95,.1,1.31,.63,1.39,1.48-1.96,1.46-4.08,.15-6.12,.3-3.01,.22-6.09,.14-9.01-.5-2.8-.61-5.65-.41-8.45-1.19-1.73-.48-3.49-.7-5-1.76-.28-.69,0-1.21,.52-1.66,1.93-.74,3.74-.38,5.48,.59Z"/><path class="cls-2" d="M53.32,118.01c1.45-.51,2.9,.15,4.35,.03,.45-.04,.93,.11,1.28-.33,.66-1.02,1.75-.83,2.71-.88,5.78-.28,11.3-1.63,16.69-3.68,1.58-.6,3.21-1.1,4.78-1.77,.39-.17,.79-.23,1.17,.02,1.12,.8-.02,1.61,.02,2.42-2.03,.82-4.03,1.72-6.1,2.44-2.38,.84-4.95,1.18-7.29,1.92-3.21,1.01-6.48,.69-9.67,1.47-2.77,.67-5.76,.63-8.67,.47-.51-.97-.72-1.83,.73-2.12Z"/><path class="cls-2" d="M105.09,84.24c.14-.74-.19-1.41-.34-2.11,2.29-.24,3.4,.91,4.8,2.69,1.45,1.85,.91,3.78,1.29,5.66,.13,.64,.23,1.45-.74,1.93-.72,.36,.06,1.27-.28,2.01-.75,1.62-1.85,2.94-3.22,3.93-1.95,1.4-3.87,2.89-6.12,3.84-.74,.31-1.42,.59-2.08-.1-.59-.24-.42-.6-.15-.97,1.35-1.37,3.02-2.34,4.51-3.53,.61-.48,1.11-1,1.52-1.63,1.65-1.14,2.49-2.9,3.45-4.55,.54-.92-.48-4.64-1.43-5.48-.43-.39-.94-.69-1.26-1.2-.07-.16-.06-.32,.04-.47Z"/><path class="cls-2" d="M45.8,45.15c-.62-.29-.59-1.2-1.32-1.37-2.22-3.09-4.1-6.38-4.31-10.27-.17-3.12,.67-6.01,3.13-8.23,.98-.89,1.85-1.91,2.85-2.77,1.3-1.12,3.33-1.05,5.02,.05,.5,1.1-.39,1.23-1.04,1.29-2.72,.23-4.44,1.71-5.84,3.98-1.03,1.67-1.64,3.38-1.89,5.28-.03,.4-.43,.81-.26,1.17,.41,.85,.55,1.22,.95,1.62,.08,.08,.22,.24,.29,.4,.58,2.39,2.25,4.22,3.33,6.35,.16,.31,.64,.46,.97,.68,.1,.1,.19,.2,.28,.3,.12,.25,.27,.5,.05,.77l-.38,.02c-.55,.4-.99,1.06-1.83,.75Z"/><path class="cls-2" d="M98.34,101.49c-.28,.23-.01,.4,.05,.6-.36,.05-.68,.2-.88,.51-.9,1.44-2.04,2.68-3.31,3.81-1.12,.21-1.61-.38-1.77-1.39,0-.57,.32-1,.66-1.4,1.94-2.21,3.1-4.87,4.37-7.48,.89-1.84,.76-3.9,1.56-5.73,.21-.47,.25-1.02,.51-1.49,.54-.65,1.51-.92,1.69-1.9h0c.31-.27,.66-.32,1.04-.16,.66,.54,.83,1.27,.65,2.05-.97,4.21-1.52,8.58-4.33,12.15-.09,.12-.12,.32-.25,.43Z"/><path class="cls-2" d="M25.78,57.79c.66,2.12,.56,2.31-1.35,2.41-1.98-1.82-4.55-2.82-6.53-4.65-.49-.88-1.37-.54-2.1-.68-.16-.05-.31-.12-.44-.21-.72-.56-.69-1.35-.48-2.07,.15-.52,.68-.22,1.06-.13,1.24-.25,2.35-.17,3.39,.74,.63,.55,1.53,.79,2.31,1.16,1.67,.79,2.77,2.26,4.14,3.41Z"/><path class="cls-2" d="M92.73,104.93c.03,.95,.82,1.15,1.47,1.48-.98,2.22-2.91,3.48-4.87,4.67-1.63,.98-3.34,1.83-5.01,2.74-.09-.33-.96-.56-.18-.99,.6-.33,.38-.69,.16-1.1,.01-1.43,1.37-1.63,2.18-2.25,2.06-1.55,4.05-3.2,6.25-4.56Z"/><path class="cls-2" d="M14.51,45.15c-1.1-1.17-.74-2.8-.9-4.09-.31-2.6-1.24-5.23-.51-7.92-.16-.4,.08-.54,.4-.53,.68,.02,1.15,.54,1.16,1.08,.02,1.23,.64,2.11,1.33,3,.14,1.74,.08,3.53,.5,5.21,.22,.86,.15,1.68,.3,2.5-.93-.26-1.51,.52-2.28,.74Z"/><path class="cls-2" d="M91.68,46.15c-.62-.51-.96,.28-1.47,.31-.79-1.91-.95-4.04-2.08-5.84-.36-.58-.24-1.25-.27-1.89,.22,.18,.43,.36,.65,.54,.2-.43,.7-1.06,.56-1.26-.73-1.09,.29-1.69,.54-2.49,1.27,2.95,1.82,6.13,2.83,9.17,.24,.75-.25,1.11-.77,1.45Z"/><path class="cls-2" d="M53.32,118.01c-.98,.45-.68,1.35-.73,2.12-.09,.06-.19,.08-.29,.07-1.11-.39-2.21,.44-3.32,.02-2.33-.11-4.69,.89-7.01-.31-.64-.33-.76-.58-.54-1.15,1.36-.35,2.66-.51,4.14-.48,1.8,.04,3.81,.25,5.65-.37,.73-.25,1.44-.43,2.12,.11Z"/><path class="cls-2" d="M12.76,114.51l-.71,1.44c-1.86-.59-3.15-1.99-4.57-3.21-.39-1.31-.3-2.44,1.19-3.01,.75-.05,1.11,.49,1.49,.99,.66,.87,1.78,1.04,2.6,1.67,.98,.75,1.14,1.42,0,2.13Z"/><path class="cls-2" d="M28.62,25l-2.06-.03c-1.15-.34-2.32,.85-3.46-.06-.13-.11-.24-.25-.36-.37-1.44-1.48-1.42-1.55,.46-2.19,1.31-.15,2.62-.22,3.93-.23,.69,0,1.38,.08,1.83,.73-.45,1.63,.81,1.53,1.77,1.74-.68,.26-1.36,.5-2.11,.41Z"/><path class="cls-2" d="M14.51,45.15c.53-.94,1.16-1.6,2.28-.74,.3,1.18,.6,2.36,.9,3.54,.3,.45,.34,.91-.23,1.12-.56,.21-1.16,.29-1.45-.46-1.01-.93-1.03-2.29-1.49-3.46Z"/><path class="cls-2" d="M15.98,36.7c-1.32-.26-1.98-.84-1.54-2.36,.22-.76-.5-1.26-1.35-1.2-.88-.73-.04-1.43,.03-2.15,.79,.54,.81-.7,1.44-.59-.03,.73-.43,1.67,.27,2.13,.51,.34,1.1-.1,1.12-.87,.11,.25,.22,.49,.34,.74-.52,.82-.44,1.61-.18,2.55,.12,.44,.52,1.23-.13,1.76Z"/><path class="cls-2" d="M8.85,109.94c-1.44,.45-.91,1.86-1.37,2.79-1.17-.73-1.8-1.84-2.23-3.1,.62-.24,.76-.74,.86-1.34,.09-.56,.28-1.12,1.01-1.19,.58,.84,1.45,1.47,1.89,2.42,.04,.17-.02,.31-.16,.42Z"/><path class="cls-2" d="M74.14,16.86c-.24,.16-.15,.38-.14,.61,.01,.39,.58,1.01-.15,1.13-1.06,.17-.37-.68-.47-1.07-.1-.41,.13-.97-.56-1.07,.06,.97-1.62-.64-1.22,.83-1.12-.15-1.82-1.14-2.87-1.42,1.27,.02,1.45-.85,1.5-1.83,1.69,.4,3.01,1.33,3.91,2.83Z"/><path class="cls-2" d="M48.38,3.49c1.44,.11,.28-1.06,.71-1.45,.94,.6,1.88,1.2,2.82,1.8-.61,.08-.84,.42-.59,.97,.27,.62,.19,1.26,.18,1.9-.06,.1-.19,.27-.22,.25-1.28-.82-2.8-1.35-3.65-2.68-.44-.68,.07-.93,.75-.8Z"/><path class="cls-2" d="M15.94,52.48c-1.3,.51-.65,1.36-.37,2.14-.71,.48-1.26,.24-1.75-.36-.03-.17-.08-.34-.09-.51-.06-2.04-1.19-2.26-2.81-1.65,1.58-1.14,3.73-.97,5.01,.38Z"/><path class="cls-2" d="M16,48.6c.76,.29,1.61,.8,1.68-.66,.55,.5,.45,1.29,.84,1.85,.38,.53,.35,1-.16,1.34-.6,.4-1.23,.28-1.69-.28-.53-.64-.68-1.43-.68-2.24Z"/><path class="cls-2" d="M1.12,93.69c.2,1.51,1.05,3.05,2.38,4.26-.58,.11-1.2,.1-1.36,.8l-.88-.15c-.9-.82-.51-1.92-.64-2.9,.15-.68-1.19-1.72,.5-2.02Z"/><path class="cls-2" d="M17.65,89.52l-.74-2.87c.15-.62,.16-1.3,.72-1.76,.95,.11,1.32,.73,1.2,1.58-.07,.49,.17,.75,.39,1.08-.03,1.05-.33,1.88-1.57,1.97Z"/><path class="cls-2" d="M18.28,81.43l2.17,2.06c.34,.92-.11,1.47-.87,1.89-.76-.19-1.4-.55-1.89-1.17,.32-.9,.76-1.77,.59-2.77Z"/><path class="cls-2" d="M17.69,84.2c.69,.14,1.36,.33,1.75,1,.09,.83-.07,1.57-.7,2.17-.47,.25-.96-.05-.75-.4,.66-1.05-.11-1.49-.65-2.08,.03-.28-.06-.62,.36-.7Z"/><path class="cls-2" d="M36.74,22.56c.04-1.4,.56-2.39,2.12-2.48-.05,1.39-1.41,1.66-2.12,2.48Z"/><path class="cls-2" d="M4.59,107.85l.95-1.13c.67,1.09-.38,1.75-.58,2.6-.52-.39-.18-1-.37-1.47Z"/><path class="cls-2" d="M33.92,26.96c-.06,.44-.29,.66-.71,.58-.52-.1-.82-.42-.79-.97,.02-.33,.22-.55,.57-.46,.46,.11,.88,.31,.93,.85Z"/><path class="cls-1" d="M.78,95.83c.16,.93,.32,1.85,.48,2.78-.42-.23-.84-.47-1.26-.7,.76-.55,.25-1.39,.47-2.07,.1-.18,.2-.18,.31,0Z"/><path class="cls-2" d="M91.68,46.15l.77-1.45c.82,.55,.63,1.38,.62,2.17-.38-.4-.75-.82-1.39-.71Z"/><path class="cls-4" d="M48.98,120.22c.71-.34,1.67,.4,2.29-.63,.17-.28,.45,.77,1.03,.61-1.1,.47-2.21,.41-3.32,.02Z"/><path class="cls-2" d="M98.41,73.27c-.98-.87-1.63,.33-2.47,.45-1.04,.15-2.04,.64-3.12,.85-.76,.15-1.06-.19-1.47-.58-.06-2.78-1.29-5.28-1.84-7.94-.55-2.64-2.25-4.74-3.1-7.22,.03-.52,.32-.71,.82-.63,1.46,.23,2.84-.43,4.32-.36,.69,.03,1.69-.49,1.95-1.49,.6,.11,.52,.29,.26,.8-.51,1-.49,1.91,1.06,1.35,.49-.18,.48,.17,.58,.35,.24,.45-.06,.42-.4,.42-.61,0-.96,.46-.61,.91,1.34,1.76,.64,4.02,1.66,5.96,.95,1.8,1.19,3.99,2.44,5.76,.13,.18,1.29,1.03-.08,1.37Z"/><path class="cls-2" d="M21.92,78.93c-.41-.19-.86-.57-1.29-.2-1.26,1.07-2.42,.28-3-.56-1.35-1.91-3.06-3.51-4.37-5.43-.15-.22-.13-.55-.18-.84,2.75,1.64,5.51,3.27,8.24,4.95,.75,.46,1.14,1.17,.61,2.08Z"/><path class="cls-3" d="M28.96,22.85c-1.68-.49-3.36-.24-5.04-.05-.43,.05-.62-.23-.92-.36-.88-.11-1.77,.43-2.65-.03-.17-.09-.26-.23-.27-.43,4.23-3.63,9.22-5.65,14.58-6.89,.45,.47,1.14,.47,1.62,.97,1.44,1.49,1.43,2.1,.03,3.57-1.63,1.71-3.45,2.83-5.91,2.68-.49-.03-1.05,.11-1.43,.55Z"/><path class="cls-3" d="M45.15,9.08c-3.09,.07-6.01,1.15-9.05,1.55-.64-.6-.31-1.2,.11-1.68,2.14-2.49,4.4-4.77,7.89-5.33,.92-.14,1.85,.26,2.72-.2,1.05,1.15,2.36,2.17,1.99,4.01-.16,.79-.29,1.7-1.5,1.39h0c-.72,.09-1.43,.17-2.15,.27Z"/><path class="cls-3" d="M46.58,3.54c-.11-.01-.22-.04-.33-.07,.72-.33,1.44-1.14,2.14,.03,.02,.36-1.16,.13-.45,.72,1.12,.92,2.37,1.68,3.57,2.51,.03,.46,0,.93,.1,1.38,.08,.4,.03,.85-.38,.7-1.33-.5-2.62,.29-3.92,.02,1.1-.59,1.52-2.29,.77-3.44-.42-.66-.99-1.22-1.49-1.83Z"/><path class="cls-2" d="M19.47,21.83c.14,.33,.4,.37,.71,.29-.04,.05-.06,.11-.07,.17,.07,.54-.28,.79-.68,1.01-.57-.02-1,.24-1.37,.64-1.12-.58,.08-1.18,.18-1.17,.76,.07,.83-.64,1.23-.94Z"/><path class="cls-2" d="M17.27,25.67c-.01,.76,0,1.53-.64,2.11,.17-.71-1.63-2.03,.64-2.11Z"/><path class="cls-3" d="M45.15,9.08c.69-.3,1.37-.64,2.15-.27-.63,.29,.15,.88-.31,1.27-.7-.12-.94-1.24-1.84-1Z"/><path class="cls-2" d="M61.06,113.86l.57,1.8c-.93-.89-1.64-1.63-2.74-1.48-4.6,.41-9.19,.89-13.79,1.22-3.74,.27-7.49,.38-11.23-.07-1.27-.15-2.59-.36-3.82-.35-3.21,.02-6.25-.74-9.32-1.43-.58-.13-1.02,.25-1.54,.2-2.77,.22-4.83-1.87-7.41-2.31-.6-.1-1.2-.36-1.82-.47-.37-.34-.74-.69-1.1-1.03-.01-.09-.02-.18-.02-.27-.62-2.37-1.74-4.56-2.21-7-.42-2.19-.74-4.37-.69-6.61,.09-3.74,2.1-5.67,5.84-5.67,1.65,0,3.04,.7,4.48,1.29,.75,.88,1.9,1.34,2.46,2.42,.3,.58,.84,.91,1.45,.44,.67-.52,.3-1-.19-1.44-.1-.09-.06-.32-.09-.49,.46,.35,.9,.32,1.46,.14,4.18-1.28,8.29-2.76,12.72-3.11,2.44-.19,4.76,.18,7.12,.54,4.21,.63,8.12,2.15,11.69,4.43,6.08,3.88,9.12,11.18,6.74,18.49-.05,.16-.06,.34-.09,.51,.48,.36,1.04,.1,1.54,.23Z"/><path class="cls-2" d="M104.49,84.27c-1.5,.32-1.76,1.64-2.26,2.77-.33,0-.67,0-1-.01-.2-.8,.35-1.53,.16-2.38-.15-.64,.45-.82,1.06-.71,.68,.13,1.36,.22,2.04,.33Z"/><path class="cls-2" d="M99.83,88.79c-.18-.73,.21-1.39,.28-2.09,.37,.11,.74,.22,1.11,.32,.91,1.67-.62,1.42-1.39,1.77Z"/><path class="cls-2" d="M10.66,55.67c.05,.83-.68,1.19-1.07,1.76-.74-1.25-.38-1.84,1.07-1.76Z"/><path class="cls-5" d="M47.72,43.58c.92,.13,1.17,1.2,2.02,1.43-.94,.79-1.19-.33-1.73-.63l-.29-.8Z"/><path class="cls-5" d="M45.8,45.15c.61-.25,1.22-.5,1.83-.75,.63,.87-.97,.65-.66,1.35-.39-.2-.78-.41-1.16-.61Z"/><path class="cls-2" d="M9.96,110.97c.32-.16,.48-.66,1.02-.35,1.13,.64,2.56,.67,3.6,1.25,1.49,.83,3.13,1.13,4.62,1.87-.38,.37-.76,.75-1.15,1.12-1.76-.09-3.47-.99-5.29-.37,.71-1.3,.33-2.03-1.78-2.65-.62-.18-.78-.48-1.03-.89Z"/><path class="cls-2" d="M23.33,24.67c-1.44,.18-2.56-.75-3.85-1.1-.03-.09-.04-.17-.05-.26-.04-.52,.39-.72,.68-1.01,.97-.11,1.95-.26,2.89,.15q-.82,.79,.33,2.23Z"/><path class="cls-2" d="M18.06,55.26c-.76-.48-1.78,.03-2.49-.65,.82,.24,2.02-.95,2.49,.65Z"/></svg>