<?xml version="1.0" encoding="UTF-8"?><svg id="_イヤー_1" xmlns="http://www.w3.org/2000/svg" viewBox="0 0 115.75 93.69"><defs><style>.cls-1{fill:#231815;}</style></defs><path class="cls-1" d="M98.02,9.12C88.89-.42,72.14-.56,62.15,.37c1.3,.93,2.75,2.07,4.26,3.43,7.1,1.74,17.75,6.01,26.12,14.96,13.44,14.37,18.41,36.18,17.39,37.06-1.03,.89-7.16-19.76-20.6-34.12-5.94-6.36-12.82-10.58-18.54-13.39,5.83,6.86,11.24,17.19,11.24,31.95,0,2.18-.18,4.38-.49,6.57,15.04,12.48,33.9,18.99,33.9,18.99,0,0,4.1-34.25-17.41-56.7Z"/><path class="cls-1" d="M42.03,8.9c-5.26,2.8-11.35,6.88-16.67,12.8C12.46,36.07,6.58,56.71,5.59,55.82c-.99-.89,3.79-22.7,16.69-37.06,7.85-8.74,17.79-13.02,24.6-14.83,1.55-1.41,3.04-2.6,4.37-3.58C41.64-.55,25.72-.35,17.01,9.12-3.63,31.56,.3,65.82,.3,65.82c0,0,17.31-6.22,31.58-18.17-.63-3.38-.98-6.76-.95-10.08,.14-12.5,5.39-22,11.11-28.66Z"/><path class="cls-1" d="M56.53,0s-23.16,12.21-23.43,38.13,23.43,55.56,23.43,55.56c0,0,22.75-27.71,22.74-53.04,0-30.09-22.75-40.65-22.75-40.65Zm.11,75.82c-1.43,0-2.59-15.65-2.59-34.96s1.16-34.96,2.59-34.96,2.59,15.65,2.59,34.96-1.16,34.96-2.59,34.96Z"/></svg>