<?xml version="1.0" encoding="UTF-8"?><svg xmlns="http://www.w3.org/2000/svg" viewBox="0 0 170.64 68.79"><defs><style>.cls-1{fill:#231815;}.cls-2{font-family:BalooBhaijaan-Regular, 'Baloo Bhaijaan';font-size:25px;}</style></defs><g id="_イヤー_1"><g><path d="M9.62,52.73v14.87c-.44,.1-1.07,.22-1.89,.37-.81,.15-1.69,.22-2.63,.22-1.88,0-3.19-.35-3.96-1.04-.77-.69-1.15-1.85-1.15-3.48V26.54c0-.94,.25-1.65,.74-2.15s1.18-.89,2.07-1.18c.79-.25,1.67-.47,2.63-.67,.96-.2,1.96-.36,3-.48,1.04-.12,2.07-.21,3.11-.26,1.04-.05,2.02-.07,2.96-.07,6.51,0,11.41,1.39,14.69,4.18,3.28,2.79,4.92,6.55,4.92,11.29s-1.6,8.51-4.81,11.32c-3.21,2.81-7.84,4.22-13.91,4.22h-5.77Zm5.18-7.7c2.96,0,5.29-.64,6.99-1.92,1.7-1.28,2.55-3.26,2.55-5.92s-.8-4.49-2.4-5.77c-1.6-1.28-3.94-1.92-6.99-1.92-2.12,0-3.92,.15-5.4,.44v15.1h5.25Z"/><path d="M54.98,31.57c4.83,0,8.7,1.04,11.58,3.11,2.88,2.07,4.33,5.28,4.33,9.62v17.09c0,1.18-.29,2.12-.89,2.81-.59,.69-1.33,1.31-2.22,1.85-1.38,.84-3.13,1.5-5.25,2-2.12,.49-4.54,.74-7.25,.74-4.93,0-8.82-.95-11.66-2.85-2.84-1.9-4.26-4.75-4.26-8.55,0-3.3,1.05-5.83,3.15-7.58,2.1-1.75,5.14-2.82,9.14-3.22l10.14-1.04v-1.33c0-1.87-.68-3.26-2.04-4.14-1.36-.89-3.27-1.33-5.73-1.33-1.92,0-3.8,.23-5.62,.7-1.83,.47-3.45,1.05-4.88,1.74-.54-.39-1-.92-1.37-1.59-.37-.67-.56-1.39-.56-2.18,0-.99,.23-1.79,.7-2.4,.47-.62,1.22-1.17,2.26-1.67,1.43-.59,3.06-1.04,4.88-1.33,1.82-.3,3.67-.44,5.55-.44Zm.3,30.12c1.43,0,2.74-.13,3.92-.41,1.18-.27,2.05-.6,2.59-1v-8.21l-7.18,.67c-1.97,.2-3.48,.63-4.51,1.3-1.04,.67-1.55,1.71-1.55,3.14s.53,2.54,1.59,3.33c1.06,.79,2.77,1.18,5.14,1.18Z"/><path d="M80.44,32.9c.39-.1,.97-.22,1.74-.37,.76-.15,1.59-.22,2.48-.22,1.78,0,3.07,.32,3.88,.96,.81,.64,1.22,1.78,1.22,3.4v30.93c-.4,.1-.98,.22-1.74,.37-.77,.15-1.59,.22-2.48,.22-1.78,0-3.07-.32-3.88-.96-.81-.64-1.22-1.78-1.22-3.4v-30.93Z"/><path d="M107.22,67.98c-.74,.15-1.58,.22-2.52,.22-1.73,0-3.01-.32-3.85-.96-.84-.64-1.26-1.78-1.26-3.4V19.58c.39-.15,.97-.28,1.74-.41,.76-.12,1.62-.19,2.55-.19,1.73,0,3.01,.32,3.85,.96,.84,.64,1.26,1.78,1.26,3.4v22.94l14.36-14.28c1.87,0,3.38,.42,4.51,1.26,1.13,.84,1.7,1.9,1.7,3.18,0,1.14-.36,2.12-1.07,2.96-.72,.84-1.84,1.9-3.37,3.18l-7.99,6.96,14.13,13.25c-.2,1.73-.72,3.07-1.55,4.03-.84,.96-2.05,1.44-3.63,1.44-1.13,0-2.13-.27-3-.81-.86-.54-1.91-1.5-3.14-2.89l-10.95-12.14v15.17c-.44,.1-1.04,.22-1.78,.37Z"/><path d="M170.05,63.65c-.4,.77-1.11,1.44-2.15,2.04-1.43,.89-3.25,1.63-5.44,2.22-2.2,.59-4.7,.89-7.51,.89-2.57,0-4.88-.29-6.96-.85s-3.85-1.44-5.33-2.63c-1.48-1.18-2.62-2.69-3.4-4.51-.79-1.82-1.18-4-1.18-6.51v-21.53c.39-.15,.97-.28,1.74-.41,.76-.12,1.62-.19,2.55-.19,1.73,0,3.01,.31,3.85,.92,.84,.62,1.26,1.76,1.26,3.44v17.61c0,2.57,.65,4.4,1.96,5.51,1.31,1.11,3.17,1.67,5.59,1.67,1.53,0,2.82-.15,3.88-.44,1.06-.3,1.86-.62,2.41-.96v-27.16c.39-.15,.97-.28,1.74-.41,.76-.12,1.59-.19,2.48-.19,1.78,0,3.07,.31,3.88,.92,.81,.62,1.22,1.76,1.22,3.44v24.27c0,1.14-.2,2.08-.59,2.85Z"/></g><path class="cls-1" d="M92.85,18.95c-.67-2.24-3.3-3.62-4.95-4.29,.13,.25,.27,.55,.39,.89,.98,.85,2.31,2.39,2.91,4.48,.95,3.35-.03,7.2-.27,7.25-.23,.06,.47-3.7-.48-7.05-.42-1.48-1.16-2.71-1.84-3.62,.36,1.55,.38,3.62-.82,5.95-.18,.34-.38,.68-.61,1,1.36,3.19,3.8,5.74,3.8,5.74,0,0,3.42-5.07,1.85-10.35Z"/><path class="cls-1" d="M84.04,14.38c-1.06,.02-2.35,.16-3.67,.67-3.2,1.22-5.8,4-5.88,3.78-.08-.22,2.44-3.27,5.64-4.49,1.95-.74,3.86-.61,5.08-.34,.36-.1,.69-.16,.98-.21-1.44-.92-3.97-2.18-6.11-1.4-5.08,1.86-7.23,7.58-7.23,7.58,0,0,3.23,.42,6.45-.3,.17-.58,.39-1.15,.67-1.67,1.04-1.96,2.63-3.03,4.08-3.62Z"/><path class="cls-1" d="M87.05,14.15s-4.64,.05-6.79,4.11-.81,10.66-.81,10.66c0,0,5.83-2.52,7.89-6.52,2.44-4.74-.29-8.25-.29-8.25Zm-6.13,11.96c-.23-.12,.86-2.68,2.43-5.72s3.02-5.42,3.24-5.3-.86,2.68-2.43,5.72-3.02,5.42-3.24,5.3Z"/></g><g id="_イヤー_2"><text class="cls-2" transform="translate(111.39 20.09)"><tspan x="0" y="0">BETA</tspan></text></g></svg>